DataType=double
version=3
OpenSimVersion=4.5.2-2025-05-03-6a4c6ec41
endheader
time	q	q_dot	q_ddot	torque
0.01	0	0	0	0
0.02	-5.835387666732318e-05	-0.01166839939974829	-1.16588961486747	-3
0.03	-0.0002332729796671018	-0.02330829920245882	-1.161616416100159	-3
0.04	-0.0005243300761194575	-0.03489126942214878	-1.154506016346031	-3
0.05	-0.0009308142708155788	-0.04638901913066744	-1.144575784147873	-3
0.06	-0.001451732742730067	-0.05777346557612328	-1.131849978013909	-3
0.07000000000000001	-0.002085813170393653	-0.06901680280930161	-1.116359689053043	-3
0.08	-0.002831506840390441	-0.08009156965504453	-1.098142767346456	-3
0.09	-0.003686992431617636	-0.0909707168664281	-1.077243732153889	-3
0.09999999999999999	-0.004650180466329444	-0.1016276733006814	-1.053713666078712	-3
0.11	-0.005718718417382888	-0.1120364109571715	-1.027610093343794	-3
0.12	-0.00688999645951467	-0.1221715087194475	-0.9989968423605158	-3
0.13	-0.008161153850907758	-0.1320082146453233	-0.9679438928061753	-3
0.14	-0.009529085929757536	-0.1415225066513048	-0.9345272074605872	-3
0.15	-0.01099045170902357	-0.1506911514403683	-0.8988285490909363	-3
0.16	-0.01254168205105824	-0.1594917615251849	-0.8609352827147796	-3
0.17	-0.01417898840234166	-0.1679028502024013	-0.8209401636143666	-3
0.18	-0.01589837206712772	-0.1759038843375469	-0.778941111520935	-3
0.19	-0.01769563399742375	-0.1834753348245534	-0.7350409714349724	-3
0.2	-0.01956638507538985	-0.1905987245887831	-0.6893472615972592	-3
0.21	-0.02150605686295995	-0.1972566740078519	-0.6419719091753242	-3
0.2200000000000001	-0.02350991279225828	-0.2034329436304355	-0.5930309742802199	-3
0.2300000000000001	-0.02557305976921836	-0.2091124740796459	-0.5426443629787192	-3
0.2400000000000001	-0.02769046016171184	-0.2142814230344635	-0.4909355300154801	-3
0.2500000000000001	-0.02985694414246575	-0.2189271991900988	-0.4380311720078279	-3
0.2600000000000001	-0.03206722235609424	-0.2230384931060167	-0.3840609119218611	-3
0.2700000000000001	-0.03431589887869971	-0.2266053048586609	-0.3291569756820042	-3
0.2800000000000001	-0.03659748443771154	-0.2296189684246437	-0.2734538618062128	-3
0.2900000000000001	-0.03890640985893384	-0.23207217272927	-0.2170880049952108	-3
0.3000000000000001	-0.04123703970716908	-0.2339589793047123	-0.1601974346358549	-3
0.3100000000000001	-0.04358368608627608	-0.2352748365118922	-0.1029214292054038	-3
0.3200000000000001	-0.04594062256411141	-0.2360165902901019	-0.04540016758477609	-3
0.3300000000000001	-0.04830209818749377	-0.2361824914085628	0.01222562169565984	-3
0.3400000000000001	-0.05066235155212479	-0.2357721992044075	0.06981501224479689	-3
0.3500000000000001	-0.05301562489229592	-0.2347867818019181	0.1272272315979009	-3
0.3600000000000002	-0.05535617815521124	-0.2332287128182097	0.1843220119692311	-3
0.3700000000000002	-0.05767830302485957	-0.2311018645708288	0.2409599389468357	-3
0.3800000000000002	-0.05997633686057481	-0.228411497812899	0.2970027971219853	-3
0.3900000000000002	-0.06224467651572962	-0.225164248031418	0.3523139116675291	-3
0.4000000000000002	-0.0644777920024128	-0.2213681083540303	0.4067584849070176	-3
0.4100000000000002	-0.06667023996844104	-0.2170324091190265	0.4602039269493237	-3
0.4200000000000002	-0.06881667695364901	-0.212167794172383	0.5125201795012533	-3
0.4300000000000002	-0.07091187239308359	-0.2067861939643269	0.5635800320127109	-3
0.4400000000000002	-0.07295072133549439	-0.2009007955261385	0.6132594293547816	-3
0.4500000000000002	-0.07492825684635893	-0.194526009415658	0.6614377702799409	-3
0.4600000000000002	-0.07683966206560247	-0.1876774337272153	0.7079981959648447	-3
0.4700000000000003	-0.0786802818911634	-0.1803718152684367	0.7528278679890101	-3
0.4800000000000003	-0.0804456342606114	-0.1726270080125775	0.795818235156565	-3
0.4900000000000003	-0.08213142100414057	-0.1644619289406896	0.8368652886222534	-3
0.5000000000000002	-0.08373353824342916	-0.1558965113930513	0.8758698048365356	-3
0.5100000000000002	-0.08524808631207476	-0.1469516560538748	0.9127375758770413	-3
0.5200000000000002	-0.0866713791745751	-0.1376491796973801	0.9473796267844219	-3
0.5300000000000002	-0.08799995332212378	-0.1280117618268971	0.9797124195691125	-3
0.5400000000000003	-0.08923057612482238	-0.1180628893417633	1.009658043601201	-3
0.5500000000000003	-0.09036025362127223	-0.1078267993694449	1.037144392138193	-3
0.5600000000000003	-0.09138623772789467	-0.09732842040256649	1.062105324784498	-3
0.5700000000000003	-0.09230603285173529	-0.08659331188241159	1.084480815711837	-3
0.5800000000000003	-0.09311740189193131	-0.07564760237200757	1.104217087501321	-3
0.5900000000000003	-0.09381837161645877	-0.06451792646315663	1.121266730495563	-3
0.6000000000000003	-0.09440723740222511	-0.05323136056277048	1.135588807573042	-3
0.6100000000000003	-0.09488256732803009	-0.04181535770463929	1.14714894427708	-3
0.6200000000000003	-0.09524320561138291	-0.03029768153335609	1.155919404248529	-3
0.6300000000000003	-0.09548827538163221	-0.01870633960755622	1.161879149924841	-3
0.6400000000000003	-0.09561718078333944	-0.007069516169948132	1.165013888479076	-3
0.6500000000000004	-0.09562960840530194	0.004584495468168068	1.165316102981017	-3
0.6600000000000004	-0.09552552803210944	0.01622736078005516	1.16278506876931	-3
0.6700000000000004	-0.0953051927165971	0.02783077196644525	1.157426855029212	-3
0.6800000000000004	-0.09496913817303711	0.03936651584024749	1.149254311575429	-3
0.6900000000000004	-0.09451818149239065	0.05080654150512571	1.13828704084439	-3
0.7000000000000004	-0.09395341918242082	0.06212302768008411	1.124551355105744	-3
0.7100000000000004	-0.09327622453694535	0.07328844952232881	1.10808021890933	-3
0.7200000000000004	-0.09248824433998409	0.08427564480087432	1.088913176792073	-3
0.7300000000000004	-0.09159139491203036	0.09505787927365855	1.067096266279585	-3
0.7400000000000004	-0.09058785750714561	0.1056089111213402	1.042681916230222	-3
0.7500000000000004	-0.08948007307104242	0.1159030542915073	1.015728830585414	-3
0.7600000000000005	-0.0882707363717801	0.1259152406077579	0.9863018576094204	-3
0.7700000000000005	-0.08696278951614815	0.1356210804990578	0.9544718447247662	-3
0.7800000000000005	-0.08555941486625278	0.1449969222059725	0.9203154790763813	-3
0.7900000000000005	-0.08406402737224875	0.1540199093218536	0.8839151139882064	-3
0.8000000000000005	-0.08248026633856931	0.1626680365288633	0.8453585815105543	-3
0.8100000000000005	-0.08081198664239743	0.1709202033908962	0.8047389912948367	-3
0.8200000000000005	-0.0790632494244886	0.1787562660680266	0.7621545160740834	-3
0.8300000000000005	-0.07723831227379438	0.1861570868201183	0.7177081640727478	-3
0.8400000000000005	-0.07534161892864266	0.1931045811707056	0.6715075387172331	-3
0.8500000000000005	-0.07337778851850017	0.1995817626062201	0.6236645860688499	-3
0.8600000000000005	-0.07135160437156973	0.2055727846901098	0.5742953304531041	-3
0.8700000000000006	-0.06926800241465526	0.211062980476409	0.523519598812595	-3
0.8800000000000006	-0.0671320591928541	0.2160388991128536	0.4714607343648506	-3
0.8900000000000006	-0.06494897953770579	0.2204883395297252	0.4182453002003302	-3
0.9000000000000006	-0.06272408391343161	0.2244003811172216	0.3640027735089993	-3
0.9100000000000006	-0.06046279547183621	0.2277654113012987	0.308865231175504	-3
0.9200000000000006	-0.0581706268473051	0.230575149935577	0.2529670275324081	-3
0.9300000000000006	-0.05585316672411574	0.2328226704350352	0.1964444651074384	-3
0.9400000000000006	-0.05351606620898022	0.2345024175857912	0.1394354592436241	-3
0.9500000000000006	-0.05116502504234988	0.2356102219742584	0.0820791975099379	-3
0.9600000000000006	-0.04880577768253277	0.2361433109883119	0.0245157948540067	-3
0.9700000000000006	-0.04644407929710057	0.2361003163527669	-0.03311405452279641	-3
0.9800000000000006	-0.04408569169638919	0.2354812781713926	-0.09066942756449976	-3
0.9900000000000007	-0.04173636924412425	0.2342876454578098	-0.1480095240134411	-3
1.000000000000001	-0.03940184478032834	0.2325222731478852	-0.204994018285547	-3
1.010000000000001	-0.03708781559168878	0.2301894155965777	-0.2614834105320375	-3
1.020000000000001	-0.03479992946448354	0.2272947165725462	-0.3173393758533904	-3
1.030000000000001	-0.03254377085497816	0.2238451957741378	-0.3724251106394885	-3
1.040000000000001	-0.0303248472119192	0.2198492319005662	-0.4266056750240844	-3
1.050000000000001	-0.02814857548536134	0.2153165423221172	-0.4797483304617765	-3
1.060000000000001	-0.02602026885557799	0.210258159403009	-0.5317228714612883	-3
1.070000000000001	-0.02394512371522066	0.204686403540051	-0.5824019505395058	-3
1.080000000000001	-0.02192820693721523	0.1986148529894254	-0.631661395496009	-3
1.090000000000001	-0.01997444346011523	0.1920583105627247	-0.6793805181471213	-3
1.100000000000001	-0.01808860422177879	0.1850327672817803	-0.7254424137012724	-3
1.110000000000001	-0.01627529447130039	0.1775553630897695	-0.769734250003004	-3
1.120000000000001	-0.01453894248811564	0.1696443447235796	-0.8121475459206774	-3
1.130000000000001	-0.01288378873611236	0.1613190208594137	-0.8525784382021605	-3
1.140000000000001	-0.01131387547942829	0.1525997146501268	-0.8909279361728428	-3
1.150000000000001	-0.00983303688540035	0.1435077137787886	-0.9271021637006474	-3
1.160000000000001	-0.008444889638857676	0.1340652181584712	-0.9610125879026766	-3
1.170000000000001	-0.007152824090625081	0.1242952854132662	-0.9925762341171797	-3
1.180000000000001	-0.005959995961730566	0.1142217742800614	-1.021715886712251	-3
1.190000000000001	-0.004869318623394578	0.1038692860746598	-1.048360275348548	-3
1.200000000000001	-0.00388345597142445	0.093263104369431	-1.072444246357116	-3
1.210000000000001	-0.003004815912149333	0.08242913303286574	-1.093908918934748	-3
1.220000000000001	-0.002235544475513006	0.07139383278418218	-1.112701825898167	-3
1.230000000000001	-0.001577520569398118	0.06018415641853846	-1.128777038774391	-3
1.240000000000001	-0.001032351387689325	0.04882748286046188	-1.14209527703817	-3
1.250000000000001	-0.0006013684829977664	0.03735155020484016	-1.152624001338207	-3
1.260000000000001	-0.0002856245133683882	0.02578438790625882	-1.160337490582299	-3
